<?xml version="1.0" standalone="no"?>
<!DOCTYPE svg PUBLIC "-//W3C//DTD SVG 20010904//EN"
 "http://www.w3.org/TR/2001/REC-SVG-20010904/DTD/svg10.dtd">
<svg version="1.0" xmlns="http://www.w3.org/2000/svg"
 width="2014.000000pt" height="1725.000000pt" viewBox="0 0 2014.000000 1725.000000"
 preserveAspectRatio="xMidYMid meet">

<g transform="translate(0.000000,1725.000000) scale(0.100000,-0.100000)"
fill="red" stroke="none">
<path d="M18785 16554 c-49 -2 -3991 -6 -8760 -8 -4769 -3 -8682 -5 -8696 -6
-15 -1 -26 -7 -26 -16 0 -7 4 -14 9 -14 4 0 8 -5 8 -10 0 -6 27 -37 59 -69 52
-51 60 -56 63 -38 3 20 4 20 21 2 15 -14 16 -20 6 -26 -10 -6 -10 -9 4 -14 9
-4 23 0 32 9 19 19 51 21 62 4 4 -7 15 -33 24 -58 14 -40 21 -47 68 -65 29
-11 57 -28 63 -39 21 -38 48 -56 83 -56 28 0 35 -4 35 -20 0 -15 12 -23 54
-35 51 -15 78 -39 54 -47 -6 -2 3 -10 20 -17 18 -8 32 -18 32 -24 0 -16 33
-36 60 -37 15 0 31 -9 38 -21 10 -15 21 -20 38 -16 17 3 31 -3 47 -19 12 -13
31 -24 42 -25 17 -1 17 -2 3 -6 -44 -11 -2 -58 52 -58 27 0 39 -6 52 -27 17
-28 51 -37 63 -18 8 13 35 1 35 -16 0 -8 -7 -14 -15 -14 -8 0 -15 -4 -15 -10
0 -5 8 -10 18 -10 11 0 24 -11 30 -25 8 -16 23 -28 42 -32 17 -3 33 -9 36 -14
2 -4 10 -6 17 -3 7 2 20 -9 30 -26 18 -30 44 -39 63 -20 6 6 18 8 27 4 13 -4
14 -10 7 -24 -14 -26 -15 -25 43 -50 28 -12 58 -29 65 -38 11 -14 14 -15 21
-3 12 19 31 -17 31 -61 1 -27 3 -30 13 -18 23 28 44 40 61 34 12 -5 13 -10 5
-25 -5 -10 -6 -19 -1 -19 5 0 14 -12 21 -26 6 -15 17 -24 25 -21 20 8 39 -8
41 -35 2 -31 45 -40 45 -9 0 23 4 24 35 11 18 -7 19 -8 2 -15 -30 -13 -19 -31
21 -32 58 -1 64 -2 58 -12 -4 -5 0 -12 6 -14 7 -3 -7 -6 -32 -7 -34 -1 -40 -3
-25 -10 11 -4 286 -9 610 -9 325 -1 622 -3 660 -5 39 -2 2889 -4 6335 -5 3460
-1 6271 -5 6279 -10 14 -9 8 -45 -14 -71 -6 -8 -24 -37 -40 -65 -59 -107 -150
-266 -182 -320 -7 -11 -16 -27 -20 -35 -4 -8 -47 -85 -96 -170 -261 -451 -311
-538 -397 -685 -51 -88 -125 -216 -165 -285 -39 -69 -94 -163 -122 -210 -28
-47 -62 -105 -76 -130 -14 -25 -58 -101 -97 -170 -40 -69 -81 -138 -90 -155
-59 -102 -206 -355 -221 -380 -10 -16 -28 -48 -40 -70 -12 -22 -87 -152 -167
-290 -80 -137 -156 -270 -170 -295 -14 -25 -43 -74 -65 -110 -46 -76 -79 -134
-110 -193 -12 -23 -54 -96 -93 -162 -77 -129 -406 -696 -430 -742 -8 -16 -23
-40 -32 -55 -9 -15 -58 -98 -108 -185 -50 -87 -130 -225 -178 -307 -47 -82
-86 -151 -86 -152 0 -2 -24 -43 -53 -91 -30 -49 -66 -110 -80 -136 -43 -76
-78 -138 -118 -207 -21 -36 -52 -92 -70 -125 -17 -33 -46 -85 -64 -115 -90
-150 -165 -281 -165 -287 0 -3 -22 -43 -50 -89 -27 -46 -50 -85 -50 -87 0 -2
-25 -48 -57 -103 -31 -54 -56 -104 -56 -111 0 -7 -4 -10 -8 -8 -3 3 -12 -10
-19 -28 -8 -17 -20 -40 -28 -49 -8 -9 -11 -22 -7 -27 3 -6 1 -11 -4 -11 -6 0
-11 -7 -11 -15 0 -8 -5 -15 -11 -15 -5 0 -8 -4 -4 -10 3 -5 13 -7 23 -4 13 5
14 4 3 -4 -14 -10 -9 -42 8 -42 15 0 21 30 10 53 -10 21 -10 21 5 3 9 -11 16
-23 16 -28 0 -4 6 -8 13 -8 7 0 18 -5 25 -12 9 -9 8 -16 -5 -30 -14 -16 -14
-18 -1 -18 9 0 18 -7 22 -15 3 -8 15 -15 26 -15 30 0 60 -18 60 -35 0 -20 29
-19 36 0 4 8 12 15 20 15 17 0 75 -56 67 -64 -11 -11 -23 -6 -23 9 0 18 -5 18
-31 4 -23 -12 -16 -29 12 -29 10 0 19 -4 19 -10 0 -5 6 -10 14 -10 8 0 21 -9
29 -21 11 -15 33 -23 88 -31 41 -5 75 -11 77 -13 2 -1 5 -14 8 -29 9 -49 23
-76 42 -76 11 0 25 -14 36 -37 18 -37 19 -37 29 -15 13 29 25 28 33 -3 7 -30
24 -33 31 -5 7 28 43 8 43 -25 0 -24 16 -42 27 -31 4 3 7 16 9 29 1 12 3 24 3
27 1 3 7 -6 14 -20 10 -18 10 -30 3 -43 -8 -13 -8 -20 0 -25 6 -4 14 -17 18
-29 6 -18 14 -22 43 -20 31 2 37 -2 43 -22 6 -27 48 -45 71 -30 8 5 23 8 34 8
20 0 20 -1 1 -8 -19 -7 -19 -8 1 -13 11 -3 37 -4 58 -1 24 2 34 0 30 -7 -3 -6
-10 -8 -14 -5 -5 2 -12 -10 -16 -28 l-8 -32 -7 30 c-6 23 -8 25 -9 8 -1 -27
-19 -39 -34 -24 -9 9 -8 11 6 6 27 -11 21 22 -8 41 -24 16 -51 11 -39 -7 3 -5
10 -7 15 -4 5 4 9 -2 9 -13 0 -22 4 -23 -235 19 -246 43 -474 90 -773 160
-152 36 -267 58 -271 53 -5 -5 -44 -70 -87 -144 -42 -74 -98 -169 -122 -210
-25 -41 -70 -120 -102 -175 -31 -55 -66 -116 -77 -135 -70 -121 -287 -496
-349 -604 -41 -71 -84 -141 -94 -156 -11 -16 -20 -31 -20 -34 0 -11 -257 -454
-276 -475 -20 -22 -36 -3 -101 113 -31 56 -98 171 -148 256 -51 85 -128 216
-170 290 -43 74 -128 221 -188 325 -61 105 -150 260 -200 345 -49 85 -99 172
-111 193 -47 85 -74 132 -146 254 -41 70 -84 143 -95 162 -11 20 -30 52 -41
71 -12 19 -33 55 -46 80 -49 88 -70 125 -78 135 -4 6 -17 27 -29 48 -41 73
-59 104 -131 227 -89 154 -97 167 -149 260 -100 178 -62 149 -386 294 -623
279 -1229 589 -1859 953 -109 63 -228 133 -263 154 -35 21 -68 39 -73 39 -10
0 2 -28 26 -60 6 -8 29 -49 51 -90 36 -67 118 -211 143 -250 5 -8 18 -34 30
-57 12 -23 38 -68 59 -100 20 -32 53 -87 73 -123 19 -36 70 -126 113 -200 43
-74 86 -148 95 -165 10 -16 45 -76 79 -133 33 -56 61 -104 61 -107 0 -2 14
-24 30 -48 17 -25 30 -47 30 -50 0 -5 88 -159 253 -442 38 -66 79 -137 91
-158 71 -126 259 -448 312 -537 34 -58 89 -152 121 -210 33 -58 111 -193 173
-300 62 -107 150 -260 196 -340 45 -80 98 -169 116 -199 18 -29 44 -74 58
-100 14 -25 51 -89 81 -141 31 -52 66 -111 77 -130 11 -19 42 -73 69 -120 87
-149 234 -402 291 -500 30 -52 81 -139 113 -193 33 -54 59 -100 59 -102 0 -2
13 -26 29 -53 16 -27 44 -76 61 -108 18 -33 76 -133 130 -224 53 -91 143 -246
200 -345 57 -99 123 -212 147 -252 23 -40 62 -107 86 -150 24 -43 70 -123 102
-178 32 -55 94 -163 138 -240 140 -245 360 -619 376 -638 12 -14 17 -15 26 -5
20 22 120 188 171 283 26 50 62 113 80 141 35 55 64 104 101 173 14 25 45 78
69 118 25 41 57 97 73 126 41 76 64 115 113 198 60 101 130 220 144 244 6 11
25 45 43 75 17 30 46 82 64 114 17 32 37 66 42 75 16 25 137 232 285 486 15
26 52 89 155 270 78 138 140 244 201 347 67 115 215 369 263 451 13 23 42 74
64 112 22 39 60 106 85 150 24 44 52 91 62 105 9 14 62 104 117 200 55 96 151
263 213 370 62 107 123 213 135 235 13 22 45 79 72 126 28 47 53 98 57 115 4
16 13 36 20 44 27 32 56 92 50 102 -4 7 -2 8 4 4 14 -8 52 50 52 78 0 11 3 16
6 13 6 -6 98 146 294 482 30 51 65 110 78 130 12 20 25 43 29 51 3 8 14 26 23
40 19 27 183 309 233 400 17 30 52 89 77 130 26 42 57 96 70 120 12 25 25 47
29 50 6 5 12 15 59 99 14 25 36 63 49 83 12 21 23 40 23 42 0 3 14 29 31 58
42 69 65 109 109 188 48 85 96 167 153 263 26 43 47 80 47 82 0 3 24 44 53 92
30 49 65 109 79 133 59 104 147 255 239 411 55 92 99 170 99 174 0 4 26 50 59
103 71 118 184 313 304 527 49 88 103 179 118 202 16 23 34 52 39 65 6 13 18
35 28 50 9 15 72 123 140 240 67 117 127 220 132 228 5 8 24 42 43 75 228 397
397 689 477 825 53 91 134 230 180 310 46 80 112 195 148 255 36 61 74 126 85
145 58 103 350 608 479 829 82 140 160 275 172 300 20 39 134 233 166 281 6 8
13 22 17 30 4 8 29 53 56 100 27 47 61 105 75 130 29 53 112 194 155 265 35
59 46 78 142 250 40 72 95 166 122 210 61 101 78 134 71 140 -7 7 -412 14
-533 9z m-5597 -8049 c-3 -3 -9 2 -12 12 -6 14 -5 15 5 6 7 -7 10 -15 7 -18z
m852 -609 c0 -9 -7 -12 -21 -9 -16 4 -17 8 -7 14 19 13 28 11 28 -5z"/>
<path d="M890 16539 c0 -6 14 -30 30 -54 17 -24 30 -48 30 -53 0 -6 4 -12 8
-14 9 -4 75 -112 192 -318 46 -80 97 -170 115 -200 55 -95 190 -332 225 -395
68 -123 161 -256 186 -265 26 -10 150 -17 158 -9 2 2 -59 87 -136 189 -76 102
-180 244 -231 315 -50 72 -93 132 -96 135 -19 16 -401 589 -401 599 0 5 -7 14
-16 22 -8 7 -13 20 -11 30 3 11 0 16 -8 13 -7 -3 -16 -1 -20 5 -8 14 -25 14
-25 0z"/>
<path d="M1252 16533 c-6 -2 -10 -9 -6 -14 3 -5 -5 -9 -18 -9 -18 0 -20 -2 -8
-10 35 -23 75 -6 62 28 -4 13 -9 14 -30 5z"/>
<path d="M1877 16019 c8 -8 16 -8 30 0 16 9 14 10 -11 11 -22 0 -27 -3 -19
-11z"/>
<path d="M2358 15683 c7 -3 16 -2 19 1 4 3 -2 6 -13 5 -11 0 -14 -3 -6 -6z"/>
<path d="M2720 15450 c0 -5 7 -10 15 -10 8 0 15 5 15 10 0 6 -7 10 -15 10 -8
0 -15 -4 -15 -10z"/>
<path d="M3048 15243 c7 -3 16 -2 19 1 4 3 -2 6 -13 5 -11 0 -14 -3 -6 -6z"/>
<path d="M2370 13992 c0 -4 18 -36 39 -72 22 -36 65 -110 97 -165 31 -55 106
-185 167 -290 98 -170 151 -260 332 -570 29 -49 99 -171 155 -270 57 -99 129
-223 160 -275 31 -52 73 -125 93 -161 20 -37 61 -108 92 -159 30 -51 55 -94
55 -96 0 -2 25 -44 55 -95 30 -50 55 -92 55 -94 0 -1 32 -58 71 -126 102 -178
100 -173 171 -294 35 -60 86 -148 113 -195 27 -47 85 -148 130 -225 87 -149
171 -294 330 -570 54 -93 117 -203 141 -242 24 -40 44 -75 44 -78 0 -3 35 -65
79 -138 43 -72 122 -208 176 -302 54 -93 101 -174 105 -180 4 -5 19 -30 32
-55 36 -65 228 -400 249 -435 11 -16 23 -40 28 -51 5 -12 34 -61 64 -110 29
-49 87 -147 127 -219 40 -71 108 -188 150 -260 43 -71 89 -150 102 -175 14
-25 34 -61 45 -80 40 -68 246 -425 263 -455 10 -16 50 -86 90 -155 40 -69 81
-141 92 -160 23 -40 132 -227 258 -445 296 -507 340 -585 340 -590 0 -3 8 -18
19 -33 21 -30 106 -174 161 -272 20 -36 53 -93 73 -127 55 -94 107 -184 129
-223 11 -19 59 -102 107 -183 47 -81 95 -164 107 -185 38 -67 170 -296 221
-382 163 -280 184 -314 263 -454 11 -20 29 -52 40 -71 11 -19 30 -52 41 -72
12 -21 58 -101 104 -178 45 -77 94 -160 108 -185 40 -73 203 -353 250 -432 24
-40 59 -102 79 -138 51 -95 67 -122 150 -260 64 -107 165 -282 218 -378 9 -15
47 -81 86 -147 39 -66 83 -140 96 -165 41 -74 62 -110 127 -218 33 -56 61
-105 61 -107 0 -3 15 -28 33 -57 19 -29 45 -73 59 -98 14 -25 52 -92 85 -150
32 -58 71 -123 85 -145 14 -22 69 -119 124 -215 54 -96 123 -216 154 -266 31
-49 71 -117 89 -150 57 -103 131 -228 150 -253 l18 -24 25 34 c14 19 40 61 58
94 19 33 50 87 70 120 20 33 50 85 67 115 16 30 50 89 75 130 24 41 66 113 92
159 77 135 81 142 136 236 29 50 70 119 90 155 20 36 47 83 60 105 71 124 82
149 76 180 -3 17 -39 87 -79 155 -41 69 -134 229 -209 355 -131 223 -183 313
-378 650 -51 88 -114 197 -141 241 -27 45 -49 84 -49 87 0 3 -23 42 -50 87
-28 45 -50 83 -50 84 0 2 -79 142 -161 284 -11 17 -28 47 -38 66 -10 18 -39
66 -64 107 -48 81 -265 457 -305 529 -13 25 -34 61 -47 80 -12 19 -41 69 -65
110 -117 207 -245 428 -260 450 -10 14 -31 50 -47 80 -17 30 -46 83 -67 118
-70 120 -109 187 -133 232 -14 25 -54 92 -88 150 -70 117 -221 375 -237 404
-5 10 -18 33 -28 50 -10 17 -42 74 -72 126 -30 52 -77 133 -105 180 -28 47
-71 121 -95 165 -60 107 -79 141 -116 201 -18 28 -32 54 -32 58 0 3 -25 46
-55 95 -30 49 -70 115 -89 147 -18 33 -111 194 -206 359 -95 165 -180 314
-190 330 -9 17 -59 102 -110 190 -51 88 -115 197 -142 243 -26 46 -48 85 -48
87 0 3 -15 28 -34 57 -18 29 -45 76 -60 103 -15 28 -35 64 -46 80 -11 17 -28
46 -38 65 -10 19 -42 75 -70 123 -29 49 -52 90 -52 92 0 2 -17 32 -39 66 -73
122 -321 549 -321 555 0 2 -15 28 -34 57 -18 28 -61 102 -96 162 -34 61 -84
148 -112 195 -46 77 -161 276 -410 710 -50 85 -93 160 -97 165 -5 6 -25 42
-46 80 -61 110 -74 134 -172 299 -51 85 -93 157 -93 160 0 2 -18 34 -40 70
-22 36 -40 68 -40 70 0 3 -26 49 -59 103 -32 54 -69 118 -81 143 -54 107 -84
135 -536 510 -53 44 -164 141 -229 200 -28 25 -86 77 -130 115 -135 119 -195
173 -355 324 -176 164 -749 736 -917 914 l-111 117 -256 0 c-141 0 -256 -3
-256 -8z"/>
<path d="M6390 13994 c-8 -1 -295 -5 -636 -7 -556 -3 -623 -5 -638 -19 -18
-19 -21 -48 -5 -48 6 0 9 -9 6 -20 -3 -12 -1 -17 5 -14 5 3 15 -2 22 -12 10
-12 21 -15 43 -11 40 8 73 -14 55 -36 -17 -21 30 -65 78 -73 22 -4 44 -15 55
-30 12 -17 28 -24 50 -24 33 0 72 -31 61 -48 -10 -17 34 -52 74 -58 22 -4 40
-10 40 -15 0 -5 5 -9 10 -9 6 0 19 -9 30 -20 26 -26 40 -25 40 3 0 20 2 19 19
-10 11 -17 30 -34 42 -38 14 -5 18 -10 10 -14 -18 -12 4 -62 24 -55 8 4 21 1
28 -4 8 -7 18 -7 27 -2 11 7 18 1 27 -22 12 -28 16 -30 47 -25 43 7 76 -13 58
-35 -17 -21 15 -52 72 -68 25 -7 46 -17 46 -21 0 -5 5 -9 11 -9 6 0 20 -11 31
-25 11 -14 27 -25 36 -25 20 -1 62 -33 62 -48 0 -16 25 -21 64 -12 31 7 36 5
36 -10 0 -10 -10 -20 -22 -23 -12 -4 -19 -9 -15 -13 8 -8 71 -7 99 1 10 4 18
3 17 -2 -4 -21 3 -32 21 -38 16 -5 18 -10 10 -26 -9 -16 -5 -22 22 -39 18 -11
49 -20 68 -20 39 0 89 -28 71 -39 -19 -12 6 -81 29 -81 12 0 20 7 21 18 0 12
2 13 6 3 13 -33 57 -71 75 -65 13 4 18 0 18 -15 0 -16 6 -21 25 -21 14 0 25 6
25 13 0 8 4 7 10 -3 6 -10 10 -11 10 -2 0 6 9 12 20 12 12 0 20 -7 20 -18 0
-9 9 -23 21 -30 20 -13 20 -14 3 -33 -16 -18 -16 -19 3 -19 12 0 28 -11 37
-24 10 -16 22 -23 34 -20 17 5 72 -36 72 -54 0 -21 52 -52 95 -57 11 -1 19 -8
18 -14 -2 -7 25 -11 85 -12 64 -1 78 -4 52 -9 -20 -4 62 -8 190 -10 124 -1
261 -3 305 -4 44 -1 1054 -3 2245 -4 1191 -1 2175 -5 2188 -8 16 -5 22 -14 22
-33 0 -27 -18 -61 -120 -231 -108 -181 -127 -213 -161 -275 -18 -33 -51 -91
-74 -130 -36 -60 -150 -258 -192 -335 -8 -14 -22 -37 -31 -51 -9 -14 -32 -51
-51 -83 -18 -31 -43 -63 -55 -71 -17 -11 -186 -14 -886 -19 -1113 -8 -1471
-15 -1487 -28 -9 -7 -13 -7 -13 1 0 6 -7 11 -15 11 -8 0 -14 -3 -14 -7 6 -35
-15 -45 -24 -12 -5 18 -11 20 -43 14 -44 -6 -57 -15 -25 -15 15 0 21 -5 18
-13 -3 -9 5 -14 25 -15 17 -1 50 -14 75 -29 33 -19 47 -23 52 -14 6 9 14 9 34
0 31 -14 26 -29 -9 -29 -13 0 -24 -4 -24 -10 0 -5 11 -10 24 -10 13 0 26 -6
29 -14 3 -8 26 -22 52 -32 38 -14 48 -15 55 -4 6 10 13 3 24 -23 17 -42 19
-43 40 -21 15 14 16 14 16 -3 0 -12 14 -26 38 -38 36 -18 36 -18 12 -25 l-25
-6 23 -13 c12 -6 27 -9 32 -6 6 4 13 -7 16 -24 6 -27 11 -31 40 -31 23 0 38
-7 53 -26 15 -19 27 -25 42 -21 15 4 23 0 26 -13 6 -22 27 -33 71 -38 6 -1 12
-9 12 -17 0 -9 12 -27 27 -41 l26 -24 22 20 c27 26 28 26 67 -10 30 -28 31
-31 15 -47 -16 -16 -15 -18 10 -34 20 -13 39 -16 79 -12 50 5 54 4 54 -16 0
-11 4 -21 9 -21 5 0 17 -22 27 -50 14 -40 23 -50 40 -50 23 0 84 -53 84 -73 0
-6 7 -2 15 9 14 18 14 18 15 0 0 -14 6 -17 25 -14 14 3 25 1 25 -6 0 -6 7 -3
14 7 7 9 18 17 24 17 10 0 32 -59 32 -87 0 -7 6 -13 14 -13 8 0 18 -9 21 -21
5 -15 13 -19 29 -15 22 5 66 -24 66 -44 0 -18 33 -40 76 -51 24 -6 44 -15 44
-20 0 -9 59 -49 73 -49 4 0 7 7 7 16 0 14 3 14 16 3 8 -7 13 -21 10 -32 -6
-23 39 -68 59 -61 19 8 55 -14 55 -31 0 -21 20 -19 21 3 0 13 2 14 6 2 9 -22
52 -60 68 -60 18 0 47 -29 40 -40 -3 -5 19 -21 48 -35 59 -27 77 -31 77 -14 0
5 5 7 11 3 6 -3 8 -17 5 -30 -4 -14 -2 -24 4 -24 5 0 10 6 10 13 1 7 6 5 14
-6 8 -10 18 -17 22 -16 27 5 54 -3 54 -15 0 -22 62 -25 635 -32 l541 -7 19 29
c11 16 24 37 30 46 78 129 111 185 114 193 2 6 13 26 26 45 24 37 140 232 173
290 11 19 52 91 91 158 39 68 71 126 71 129 0 3 9 18 20 33 11 15 35 54 53 87
19 32 87 150 152 263 65 113 126 219 135 235 73 127 140 241 176 302 24 40 44
75 44 78 0 3 10 22 23 43 13 20 40 64 59 97 36 61 52 88 118 205 20 36 66 114
101 173 35 60 80 137 99 171 19 34 64 113 100 175 36 62 76 131 89 154 13 23
61 105 106 182 70 119 132 226 227 395 11 19 24 40 28 45 4 6 17 27 29 48 12
20 29 52 40 70 23 40 125 218 156 272 12 22 32 56 43 75 12 19 32 53 44 75 12
22 27 47 33 57 45 72 75 127 75 137 0 8 -1099 11 -4242 10 -2334 -1 -4250 -3
-4258 -5z m2760 -2814 c0 -5 -5 -10 -11 -10 -5 0 -7 5 -4 10 3 6 8 10 11 10 2
0 4 -4 4 -10z m1665 -1120 c3 -5 1 -10 -4 -10 -6 0 -11 5 -11 10 0 6 2 10 4
10 3 0 8 -4 11 -10z"/>
<path d="M4992 13967 c-8 -10 -5 -13 13 -15 12 -1 26 5 29 13 7 19 -27 20 -42
2z"/>
<path d="M5760 13375 c0 -17 2 -18 24 -9 18 7 12 24 -10 24 -8 0 -14 -7 -14
-15z"/>
<path d="M6340 13055 c0 -21 30 -31 41 -14 14 23 11 29 -16 29 -16 0 -25 -6
-25 -15z"/>
<path d="M6508 12933 c17 -2 32 -8 32 -14 0 -5 5 -9 10 -9 6 0 10 7 10 15 0
11 -11 15 -42 13 -37 -1 -39 -2 -10 -5z"/>
<path d="M7068 12513 c12 -2 30 -2 40 0 9 3 -1 5 -23 4 -22 0 -30 -2 -17 -4z"/>
<path d="M7083 12493 c9 -2 23 -2 30 0 6 3 -1 5 -18 5 -16 0 -22 -2 -12 -5z"/>
<path d="M7143 12493 c9 -2 25 -2 35 0 9 3 1 5 -18 5 -19 0 -27 -2 -17 -5z"/>
<path d="M8968 11213 c7 -3 16 -2 19 1 4 3 -2 6 -13 5 -11 0 -14 -3 -6 -6z"/>
<path d="M8984 11189 c-3 -5 7 -9 22 -9 15 0 24 3 20 7 -11 11 -35 12 -42 2z"/>
<path d="M9860 10655 c0 -8 9 -15 20 -15 11 0 20 7 20 15 0 8 -9 15 -20 15
-11 0 -20 -7 -20 -15z"/>
<path d="M10029 10528 c23 -6 37 -6 44 1 8 8 -2 11 -33 10 l-45 -1 34 -10z"/>
<path d="M11072 9781 c4 -13 18 -16 19 -4 0 4 -5 9 -11 12 -7 2 -11 -2 -8 -8z"/>
<path d="M13870 7880 c0 -5 4 -10 9 -10 6 0 13 5 16 10 3 6 -1 10 -9 10 -9 0
-16 -4 -16 -10z"/>
<path d="M14058 7783 c7 -3 16 -2 19 1 4 3 -2 6 -13 5 -11 0 -14 -3 -6 -6z"/>
</g>
</svg>
